<?xml version="1.0" encoding="UTF-8"?>
<svg version="1.1" xmlns="http://www.w3.org/2000/svg" width="3576" height="4050">
<path d="M0 0 C1.64874367 -0.00855011 1.64874367 -0.00855011 3.33079529 -0.01727295 C5.65110328 -0.0266667 7.97142428 -0.03323436 10.29174805 -0.03710938 C13.74748847 -0.04670532 17.20260451 -0.07773802 20.65820312 -0.109375 C40.72324738 -0.20497867 60.61853424 1.4849315 80.30859375 5.453125 C81.88954834 5.76564209 81.88954834 5.76564209 83.50244141 6.08447266 C137.55564526 17.15851338 189.04136998 41.60025746 231.24609375 77.203125 C232.72335937 78.40195313 232.72335937 78.40195313 234.23046875 79.625 C242.26940979 86.22775827 249.69075408 93.43347137 257.05859375 100.765625 C257.79039856 101.48966522 257.79039856 101.48966522 258.5369873 102.22833252 C265.23739869 108.87262987 271.37610137 115.8136344 277.24609375 123.203125 C278.24655391 124.41171511 279.24999023 125.61785466 280.2578125 126.8203125 C296.63018081 146.62893085 310.23760095 168.94054284 321.26025391 192.13671875 C321.92569211 193.53153523 322.600084 194.92211037 323.28271484 196.30859375 C338.91164501 228.12335521 347.80363221 263.17431573 352.24609375 298.203125 C352.3646875 299.12673828 352.48328125 300.05035156 352.60546875 301.00195312 C362.34529906 380.71782623 341.43887783 464.05701487 296.24609375 530.203125 C295.83681641 530.80527832 295.42753906 531.40743164 295.00585938 532.02783203 C285.91357106 545.31853207 275.73173429 557.76522251 264.73828125 569.5234375 C262.45571907 571.9777285 260.25147016 574.48144487 258.05859375 577.015625 C255.08911816 580.36825873 251.97418327 583.32079018 248.5546875 586.20703125 C246.23212511 588.21520279 243.99644548 590.30217835 241.76342773 592.40893555 C189.00396953 642.01553182 116.09012712 672.42237165 44.24609375 678.203125 C43.58625488 678.25952148 42.92641602 678.31591797 42.24658203 678.37402344 C-47.68716826 685.80801894 -136.45570143 656.54104769 -205.37890625 598.765625 C-217.92597665 588.08856965 -230.04651818 576.73349303 -240.75390625 564.203125 C-241.56730469 563.26726563 -242.38070312 562.33140625 -243.21875 561.3671875 C-288.4882067 508.97734311 -316.73198932 443.05656367 -323.75390625 374.203125 C-323.89530029 372.94242187 -323.89530029 372.94242187 -324.03955078 371.65625 C-325.08304408 361.20264983 -324.99768113 350.69804468 -325.00390625 340.203125 C-325.00458099 339.18045532 -325.00525574 338.15778564 -325.00595093 337.10412598 C-324.98871856 320.62482978 -324.36575668 304.50616801 -321.75390625 288.203125 C-321.49649658 286.59099121 -321.49649658 286.59099121 -321.23388672 284.94628906 C-310.9416056 222.82469239 -284.31178259 164.5900764 -242.75390625 117.203125 C-241.89152344 116.19185547 -241.89152344 116.19185547 -241.01171875 115.16015625 C-233.15547287 105.99453605 -225.02344235 96.58375668 -215.72265625 88.859375 C-213.25746767 86.7854862 -210.92415254 84.58576809 -208.56640625 82.390625 C-202.57504481 76.94169135 -196.2653485 72.00429459 -189.75390625 67.203125 C-189.14901367 66.75243652 -188.54412109 66.30174805 -187.92089844 65.83740234 C-134.54151337 26.26397994 -66.93855277 0.2786369 0 0 Z " fill="#000000" transform="translate(1245.75390625,-0.203125)"/>
<path d="M0 0 C0 0.66 0 1.32 0 2 C-2.03201648 3.55676225 -4.07012383 5.00500285 -6.1875 6.4375 C-12.86456741 11.07357217 -19.01518688 16.10203071 -25.14648438 21.43359375 C-26.55078091 22.6203649 -27.97826619 23.77976594 -29.41601562 24.92578125 C-36.22342678 30.35998169 -42.46474088 36.15320444 -48.58935547 42.32861328 C-50.12380216 43.87379378 -51.66868002 45.40796009 -53.21484375 46.94140625 C-59.58801467 53.30612578 -65.37800844 59.95317869 -71 67 C-71.9464352 68.11361265 -72.89952354 69.22165704 -73.86328125 70.3203125 C-81.2405316 78.76826426 -87.72041952 87.71344261 -94 97 C-94.47469727 97.7017334 -94.94939453 98.4034668 -95.43847656 99.12646484 C-105.90296984 114.70749509 -114.90657157 131.07487796 -123 148 C-123.34885254 148.7228418 -123.69770508 149.44568359 -124.05712891 150.19042969 C-168.00249593 241.94882963 -168.33320782 348.25127559 -135.07606506 443.24241638 C-131.83548598 452.37467919 -128.06416034 461.20970037 -124 470 C-123.23673266 471.69910804 -122.47371655 473.39832895 -121.7109375 475.09765625 C-113.4491288 493.21852265 -103.49840478 510.72822882 -92 527 C-91.22782631 528.10934836 -90.45569324 529.218725 -89.68359375 530.328125 C-81.82303742 541.54415728 -73.56570027 552.45445837 -64.265625 562.5234375 C-63.01718222 563.8881146 -61.77662882 565.26071438 -60.57324219 566.6652832 C-55.71409495 572.33598056 -50.5280929 577.65807094 -45.24951172 582.93579102 C-43.76106763 584.42641615 -42.28082723 585.92487017 -40.80078125 587.42382812 C-34.528585 593.73290129 -27.98685833 599.47699586 -21 605 C-19.74543107 606.0249435 -18.49257206 607.05198716 -17.2421875 608.08203125 C33.77548218 649.63518716 95.1477474 676.17692305 159.9375 686.8125 C161.11948975 687.00755127 162.30147949 687.20260254 163.51928711 687.40356445 C182.29073716 690.31329965 201.01939144 691.38373095 220 691.3125 C221.52772034 691.30976578 221.52772034 691.30976578 223.08630371 691.30697632 C253.53015431 691.21577904 283.48729433 687.9461487 312.97973633 680.08032227 C316.41514821 679.19610614 318.61990546 678.99187753 322 680 C321.24195068 680.38631592 320.48390137 680.77263184 319.70288086 681.1706543 C270.23298241 706.43338688 222.82598384 735.15614072 178 768 C176.38411863 769.17839096 174.76823312 770.35677625 173.15234375 771.53515625 C163.6170443 778.50705031 154.22817829 785.62684992 145 793 C143.66582031 794.05960938 143.66582031 794.05960938 142.3046875 795.140625 C131.71311485 803.57404021 121.29471022 812.20768306 111 821 C110.11006348 821.75821045 110.11006348 821.75821045 109.20214844 822.53173828 C100.27420052 830.15066563 91.61158038 838.00579932 83.0793457 846.06420898 C81.58265393 847.45757156 80.07154596 848.8355068 78.55151367 850.20336914 C69.4865066 858.38044001 60.86422056 866.98382641 52.24389648 875.62573242 C49.67870537 878.19631311 47.10817269 880.76146593 44.53710938 883.32617188 C42.88249156 884.98145008 41.22818375 886.63703825 39.57421875 888.29296875 C38.81678879 889.04837448 38.05935883 889.80378021 37.27897644 890.58207703 C33.21620181 894.66260083 29.31249908 898.82473198 25.56474304 903.19714355 C22.8490616 906.32608144 19.97461325 909.30606401 17.125 912.3125 C12.20506227 917.5394866 7.54625318 922.85862862 3.06640625 928.46875 C0.99887218 931.00138153 -1.16113341 933.4073116 -3.375 935.8125 C-7.43872779 940.27199954 -11.15883977 944.93523727 -14.85205078 949.69995117 C-17.73731486 953.41621528 -20.69858266 957.04224133 -23.75 960.625 C-30.1939073 968.30263005 -36.12271466 976.36650192 -42.08740234 984.41845703 C-43.91477591 986.88496814 -45.7479332 989.34708112 -47.58203125 991.80859375 C-103.00833555 1066.3842795 -147.36855816 1148.47335483 -181 1235 C-181.26665466 1235.68479431 -181.53330933 1236.36958862 -181.80804443 1237.07513428 C-214.84506695 1322.11779192 -235.36425053 1412.05967962 -248 1548 C-248.04236786 1548.71088776 -248.08473572 1549.42177551 -248.12838745 1550.15420532 C-249.21580782 1568.61370515 -249.2011219 1587.07842167 -249.1875 1605.5625 C-249.18723312 1606.37377224 -249.18696625 1607.18504448 -249.18669128 1608.02090073 C-249.17707665 1631.30901553 -249.11590438 1654.54422916 -247.18359375 1677.7668457 C-246.98429756 1680.1909976 -246.79625891 1682.61587625 -246.609375 1685.04101562 C-239.44171242 1777.14611375 -220.43677451 1867.97462582 -118.39794922 2110.57128906 C-116.6400477 2113.62535897 -114.94884828 2116.71311071 -113.26123047 2119.80639648 C-97.69402598 2148.29342954 -79.75028601 2175.52776522 -61 2202 C-60.06494515 2203.32801305 -59.13003183 2204.65612578 -58.1953125 2205.984375 C-51.97522091 2214.7895027 -45.5127978 2223.41020775 -39 2232 C-38.57219238 2232.5657373 -38.14438477 2233.13147461 -37.70361328 2233.71435547 C-31.15584669 2242.36073189 -24.35819749 2250.78869492 -17.48828125 2259.1796875 C-16.18590621 2260.77261865 -14.88933968 2262.3702952 -13.59375 2263.96875 C-5.33518754 2274.14234144 3.19343964 2284.08221385 12 2293.78515625 C13.79603529 2295.77412502 15.55953303 2297.78563194 17.3125 2299.8125 C22.41329861 2305.65862078 27.71414365 2311.32188604 33 2317 C33.59989746 2317.64646484 34.19979492 2318.29292969 34.81787109 2318.95898438 C42.5789211 2327.31424921 50.44985472 2335.54730289 58.5 2343.625 C59.22912598 2344.35871826 59.95825195 2345.09243652 60.70947266 2345.84838867 C64.75592971 2349.88327384 68.90861518 2353.72369277 73.23632812 2357.45458984 C75.42748879 2359.37458528 77.47185718 2361.40945279 79.5 2363.5 C82.80986698 2366.84933729 86.20746949 2369.99925956 89.78125 2373.0625 C91.98360994 2374.98568756 94.13240641 2376.9603053 96.27539062 2378.94921875 C101.38227238 2383.6862247 106.60166257 2388.19386643 112.03125 2392.5625 C115.52282645 2395.42926803 118.91509547 2398.39793318 122.3125 2401.375 C128.74233009 2406.98650283 135.34183309 2412.31759888 142.09863281 2417.52832031 C144.14352491 2419.1110899 146.1778432 2420.70679524 148.2109375 2422.3046875 C185.59299321 2451.6371268 225.07664845 2477.88445355 266 2502 C266.86882812 2502.51240234 267.73765625 2503.02480469 268.6328125 2503.55273438 C284.55163702 2512.89693466 300.86323272 2521.52481101 317.22064209 2530.0703125 C318.81532677 2530.90351104 320.40895399 2531.73873275 322.00244141 2532.57421875 C349.34916494 2546.83946851 378.27431324 2559.76796161 407.17022705 2570.56852722 C407.88815052 2570.8370711 408.60607399 2571.10561499 409.34575272 2571.38229656 C409.89165432 2571.5861387 410.43755592 2571.78998083 411 2572 C411.00055616 2570.73924516 411.00111233 2569.47849032 411.00168534 2568.17953078 C411.02074581 2525.00599886 411.04024636 2481.83246713 411.06005859 2438.65893555 C411.06045773 2437.78907817 411.06085687 2436.91922079 411.0612681 2436.02300409 C411.10407258 2342.76369108 411.14977743 2249.50438003 411.20132446 2156.24507141 C411.20246954 2154.17206095 411.20361461 2152.09905049 411.20475969 2150.02604002 C411.22880716 2106.50702181 411.25326138 2062.98800383 411.27818505 2019.46898612 C411.29070577 1997.60590982 411.30314839 1975.74283348 411.31551713 1953.8797571 C411.31738329 1950.58192324 411.31925168 1947.28408938 411.32112016 1943.98625551 C411.3498512 1893.24187578 411.37691356 1842.49749584 411.39910889 1791.75311279 C411.39982403 1790.11821632 411.39982403 1790.11821632 411.40055362 1788.45029164 C411.40822959 1770.87888807 411.4157647 1753.30748445 411.42328111 1735.73608082 C411.44494936 1685.08635227 411.46766989 1634.43662516 411.49726295 1583.78690052 C411.49817625 1582.22245884 411.49817625 1582.22245884 411.499108 1580.62641227 C411.51249707 1557.72339554 411.52642105 1534.82037916 411.54085055 1511.91736307 C411.54664828 1502.70005923 411.55236911 1493.48275534 411.55806351 1484.26545143 C411.55868856 1483.25669739 411.55931362 1482.24794334 411.55995762 1481.20862099 C411.58001354 1448.77960695 411.59382543 1416.35059399 411.60431816 1383.92157557 C411.61492864 1351.21781626 411.63175316 1318.5140664 411.65705032 1285.81031498 C411.66055558 1281.27678929 411.6639906 1276.74326355 411.66738319 1272.20973778 C411.6680507 1271.32114488 411.66871821 1270.43255199 411.66940594 1269.51703204 C411.67973582 1255.52466591 411.68347811 1241.53230633 411.68437787 1227.53993675 C411.68540414 1213.73402342 411.69362291 1199.92812916 411.70915592 1186.12222439 C411.71725337 1178.7561476 411.72240098 1171.39010224 411.71827881 1164.02402123 C411.69840161 1124.54816707 412.21874818 1085.15559703 415.75 1045.8125 C415.83236908 1044.87015503 415.91473816 1043.92781006 415.99960327 1042.95690918 C423.2851032 960.1396343 438.85505525 878.27435015 464 799 C464.24385437 798.23061096 464.48770874 797.46122192 464.73895264 796.66851807 C478.62406627 752.98583268 495.47614413 710.46615975 515 669 C515.4552002 668.02788574 515.91040039 667.05577148 516.37939453 666.05419922 C532.67055044 631.33858912 550.94463478 597.92020659 571.00878906 565.24902344 C572.78440469 562.35178303 574.54719129 559.44731315 576.3046875 556.5390625 C595.66944404 524.65459513 617.45059795 493.82585002 640.68652344 464.65625 C642.01103913 462.98608003 643.32365716 461.3072307 644.6328125 459.625 C655.23682391 446.00875019 666.26369644 432.7513512 677.54541016 419.69287109 C679.00230527 417.9973171 680.44617479 416.29148974 681.88671875 414.58203125 C688.94522711 406.22682072 696.32699331 398.2261945 703.85253906 390.29101562 C705.94638017 388.05720424 708.01364701 385.80039386 710.07879639 383.54008484 C716.68395143 376.3251663 723.50029217 369.34505926 730.42871094 362.44091797 C732.2661576 360.60889005 734.0981165 358.77149395 735.9296875 356.93359375 C741.22367843 351.63661098 746.50898634 346.39681882 752.21533203 341.53955078 C755.52297018 338.68620384 758.64877639 335.63572834 761.8125 332.625 C767.21431485 327.51903762 772.68871977 322.66266152 778.50390625 318.03125 C781.02723331 315.97783831 783.41932273 313.82811943 785.8125 311.625 C790.18700826 307.64316413 794.74529075 303.98257917 799.41650391 300.36108398 C803.23314568 297.39954516 806.99211717 294.38040171 810.71972656 291.30761719 C819.47137641 284.10216453 828.50336475 277.33933747 837.68115234 270.68798828 C839.8252825 269.12718433 841.95562387 267.54966311 844.08203125 265.96484375 C882.52322027 237.49468499 924.30827735 213.29869254 966.86035156 191.60351562 C969.71191907 190.14713185 972.55583908 188.67690785 975.3984375 187.203125 C1053.40941445 147.08824864 1139.45005929 121.32334664 1312 96 C1312.69651672 95.94886047 1313.39303345 95.89772095 1314.11065674 95.84503174 C1358.55111044 92.59538592 1403.56876229 92.59771165 1448 96 C1449.20650208 96.09121124 1449.20650208 96.09121124 1450.43737793 96.18426514 C1534.98141909 102.65047155 1618.2398535 120.2448114 1868 226 C1869.7015625 226.97839844 1869.7015625 226.97839844 1871.4375 227.9765625 C1886.92151796 236.88020822 1902.13322179 246.06978451 1916.99267578 255.99316406 C1919.70681931 257.8043558 1922.42643044 259.60684841 1925.14855957 261.4059906 C1937.24376123 269.40118523 1949.31765416 277.40712079 1961 286 C1962.53249921 287.11986402 1964.06505567 288.23964971 1965.59765625 289.359375 C1983.10299544 302.17742587 2000.26041063 315.378995 2016.6875 329.5625 C2017.23196777 330.03147705 2017.77643555 330.5004541 2018.33740234 330.98364258 C2029.90392352 341.05417304 2040.87052343 351.70840092 2051.6953125 362.56494141 C2053.88948502 364.76452072 2056.08901723 366.95864007 2058.2890625 369.15234375 C2059.71125856 370.5752 2061.13314471 371.99836609 2062.5546875 373.421875 C2063.19961151 374.06477478 2063.84453552 374.70767456 2064.50900269 375.37005615 C2068.86922965 379.75251576 2072.9784967 384.30589272 2077 389 C2077.51405899 389.59670502 2078.02811798 390.19341003 2078.55775452 390.80819702 C2079.93778736 392.41086999 2081.31313396 394.01746565 2082.6875 395.625 C2083.73306153 396.84636391 2084.77863478 398.06771779 2085.82421875 399.2890625 C2086.35063965 399.90426758 2086.87706055 400.51947266 2087.41943359 401.15332031 C2089.94461149 404.10365173 2092.47242852 407.05171926 2095 410 C2095.49387207 410.5762915 2095.98774414 411.15258301 2096.49658203 411.74633789 C2099.00815401 414.67705042 2101.52071989 417.60690073 2104.03515625 420.53515625 C2109.33209069 426.70581184 2114.60940047 432.89195514 2119.85571289 439.10571289 C2123.21913937 443.08603865 2126.60507191 447.04652333 2130 451 C2133.85133975 455.4849792 2137.68626796 459.98299736 2141.5 464.5 C2145.29523727 468.99409053 2149.1079093 473.47264267 2152.9375 477.9375 C2153.43419189 478.51669189 2153.93088379 479.09588379 2154.44262695 479.69262695 C2156.99510418 482.66756041 2159.55069982 485.6397708 2162.109375 488.609375 C2166.6983591 493.94120634 2171.25877834 499.28329671 2175.6875 504.75 C2179.24267904 509.13151795 2182.96769537 513.31710681 2186.765625 517.48828125 C2189.00134533 520.00151232 2191.13377682 522.57311479 2193.25 525.1875 C2196.87264927 529.66216608 2200.59519982 534.03353167 2204.375 538.375 C2205.49746097 539.66661006 2206.61985703 540.95827654 2207.7421875 542.25 C2208.29100586 542.88164063 2208.83982422 543.51328125 2209.40527344 544.1640625 C2209.9315332 544.76992188 2210.45779297 545.37578125 2211 546 C2211.47727539 546.54914062 2211.95455078 547.09828125 2212.44628906 547.6640625 C2220.36886839 556.80853217 2227.73819117 566.32533529 2235 576 C2235.80945068 577.07000244 2235.80945068 577.07000244 2236.63525391 578.16162109 C2247.64443407 592.72978929 2257.83329417 607.83997338 2268 623 C2268.59619141 623.88671387 2269.19238281 624.77342773 2269.80664062 625.68701172 C2281.84382907 643.59360312 2293.55312337 661.71084518 2305 680 C2305.50466797 680.80453613 2306.00933594 681.60907227 2306.52929688 682.43798828 C2343.40625142 741.29928111 2377.97389633 802.49507212 2407.36035156 865.48632812 C2408.59285315 868.12750782 2409.82930883 870.76665383 2411.06933594 873.40429688 C2422.19048572 897.07152855 2432.96615019 920.85027918 2443 945 C2443.30746155 945.73996216 2443.6149231 946.47992432 2443.93170166 947.24230957 C2476.37930246 1025.46056209 2503.42477337 1105.83558065 2575.38570696 1601.55926991 C2575.37438408 1606.28013841 2575.37850219 1611.00081803 2575.39111328 1615.72167969 C2575.65543006 1717.34714915 2566.27584357 1819.00422871 2545 1935 C2544.82853455 1935.90526428 2544.65706909 1936.81052856 2544.48040771 1937.7432251 C2538.80549676 1967.69081382 2532.2298656 1997.39060623 2525 2027 C2524.78041626 2027.90131653 2524.56083252 2028.80263306 2524.33459473 2029.73126221 C2501.16283796 2124.6740427 2469.86198015 2217.76155785 2397.5 2379.88232422 C2395.9893813 2383.02207045 2394.4927474 2386.16812813 2393 2389.31640625 C2386.83230324 2402.30473183 2380.42288478 2415.13048962 2373.68066406 2427.83007812 C2372.17059015 2430.67824774 2370.66856833 2433.53053184 2369.16903687 2436.38426208 C2361.48425784 2450.99776341 2353.55779194 2465.40935631 2345.15234375 2479.625 C2342.40193611 2484.28420532 2339.77464863 2488.99884479 2337.1875 2493.75 C2331.22395853 2504.63792391 2324.67986813 2515.1853546 2318.19737244 2525.76875305 C2315.88994268 2529.53738638 2313.59897107 2533.31542615 2311.3203125 2537.1015625 C2303.18338704 2550.60634454 2294.7081181 2563.85696176 2286 2577 C2285.63632324 2577.54928162 2285.27264648 2578.09856323 2284.89794922 2578.66448975 C2267.79480695 2604.49284378 2250.23221893 2629.95382625 2232 2655 C2231.43522949 2655.77633789 2230.87045898 2656.55267578 2230.28857422 2657.35253906 C2222.24421724 2668.39167641 2213.99121987 2679.2443042 2205.56494141 2689.99414062 C2203.33348357 2692.85430562 2201.13677176 2695.74001023 2198.9375 2698.625 C2193.58322254 2705.60232038 2188.01737118 2712.40288954 2182.45410156 2719.21386719 C2180.53755294 2721.56804276 2178.6417608 2723.93837788 2176.75 2726.3125 C2170.12800934 2734.60378414 2163.37639091 2742.76585418 2156.44677734 2750.80102539 C2153.36323809 2754.38408032 2150.34502452 2758.00907741 2147.375 2761.6875 C2143.52538863 2766.42977487 2139.47287329 2770.94928961 2135.33984375 2775.4453125 C2132.7720803 2778.24884722 2130.27103125 2781.10344875 2127.77734375 2783.97265625 C2124.94445718 2787.20401478 2122.05556133 2790.38468081 2119.17578125 2793.57421875 C2117.32556437 2795.63702788 2115.50055191 2797.7171237 2113.6875 2799.8125 C2109.13063853 2805.03825856 2104.40300985 2810.10764151 2099.68408203 2815.18652344 C2097.94207827 2817.06237208 2096.2034829 2818.94134543 2094.46484375 2820.8203125 C2088.55398649 2827.19438796 2082.61564025 2833.50037092 2076.37890625 2839.55859375 C2074.44979336 2841.53838941 2072.6529295 2843.54522056 2070.85498047 2845.640625 C2067.051679 2849.99998508 2063.03685852 2854.10772379 2058.94140625 2858.19140625 C2058.1934227 2858.94034653 2057.44543915 2859.6892868 2056.67478943 2860.46092224 C2055.10367536 2862.03271225 2053.53131608 2863.60325849 2051.95776367 2865.17260742 C2049.56900154 2867.55601304 2047.18562554 2869.94471068 2044.80273438 2872.33398438 C2043.2659455 2873.87011237 2041.7288464 2875.40593009 2040.19140625 2876.94140625 C2039.48907364 2877.64576309 2038.78674103 2878.35011993 2038.06312561 2879.07582092 C2034.0984258 2883.0220752 2030.03922311 2886.79439887 2025.78855896 2890.43162537 C2022.88311727 2892.97938652 2020.19726635 2895.73547015 2017.5 2898.5 C2013.51147194 2902.5879926 2009.40583272 2906.43534861 2005.08398438 2910.16992188 C2001.46438338 2913.34852181 1997.99055292 2916.68111362 1994.5 2920 C1989.67694848 2924.58585226 1984.81027752 2929.08990459 1979.78173828 2933.45019531 C1977.55134958 2935.39024841 1975.36921987 2937.38050303 1973.1875 2939.375 C1969.72469918 2942.50422827 1966.19320997 2945.50500349 1962.5625 2948.4375 C1958.75912497 2951.51336588 1955.09917348 2954.68753166 1951.5 2958 C1947.08359856 2962.05983645 1942.53836478 2965.89323821 1937.87109375 2969.66015625 C1934.77012983 2972.18733637 1931.72834545 2974.77626005 1928.6875 2977.375 C1923.72483926 2981.60288716 1918.65600122 2985.66646429 1913.50805664 2989.66577148 C1908.80383092 2993.3333527 1904.21002205 2997.12245783 1899.625 3000.9375 C1893.57419081 3005.95861605 1887.41448765 3010.77920517 1881.09472656 3015.45629883 C1875.95482179 3019.26328524 1870.90748307 3023.17740179 1865.875 3027.125 C1858.99728709 3032.50461166 1852.00252204 3037.65857071 1844.86181641 3042.68115234 C1841.28267064 3045.21649793 1837.73866234 3047.80069094 1834.1875 3050.375 C1780.83124771 3088.96795896 1725.39106603 3124.70486692 1668 3157 C1667.14760742 3157.48017578 1666.29521484 3157.96035156 1665.41699219 3158.45507812 C1660.29503443 3161.33470415 1655.15455681 3164.17917815 1650 3167 C1649.1042627 3167.49032715 1648.20852539 3167.9806543 1647.28564453 3168.48583984 C1633.58929949 3175.97016882 1619.81150774 3183.28406293 1605.95361328 3190.46435547 C1602.90042336 3192.05177195 1599.85394815 3193.65151396 1596.80859375 3195.25390625 C1583.01770413 3202.49800617 1569.11454363 3209.41009718 1555 3216 C1553.5963168 3216.65747231 1552.19267325 3217.31502927 1550.7890625 3217.97265625 C1499.31081026 3242.06730108 1446.94188255 3264.02803588 1393.40008545 3283.14245605 C1390.92341588 3284.0273633 1388.44822605 3284.91632564 1385.97314453 3285.80566406 C1318.19558446 3310.11587626 1248.80288599 3329.98208654 1178.5625 3345.8125 C1177.51562012 3346.04912354 1176.46874023 3346.28574707 1175.39013672 3346.52954102 C1173.99239014 3346.83396118 1173.99239014 3346.83396118 1172.56640625 3347.14453125 C1171.79240479 3347.31315674 1171.01840332 3347.48178223 1170.22094727 3347.65551758 C1168 3348 1168 3348 1163 3348 C1163 3562.17 1163 3776.34 1163 3997 C915.5 3997 668 3997 413 3997 C413 3998.98 413 4000.96 413 4003 C412.34 4003 411.68 4003 411 4003 C411 3789.16 411 3575.32 411 3355 C407.04 3354.34 403.08 3353.68 399 3353 C395.66251402 3352.29239833 392.34355705 3351.56396336 389.0234375 3350.78515625 C388.11208542 3350.57404205 387.20073334 3350.36292786 386.26176453 3350.14541626 C383.29824535 3349.45639457 380.3364373 3348.76041266 377.375 3348.0625 C376.34390106 3347.82012604 375.31280212 3347.57775208 374.25045776 3347.32803345 C279.99145137 3325.12511457 187.83978203 3295.15355541 57.0758667 3239.93310547 C55.01298593 3239.0058372 52.94839969 3238.08247271 50.88330078 3237.16015625 C32.25114973 3228.83107653 13.83505575 3220.08882917 -4.5 3211.125 C-5.4840683 3210.64458252 -6.4681366 3210.16416504 -7.48202515 3209.66918945 C-19.73166303 3203.68113302 -31.8776117 3197.52998453 -43.90917969 3191.11474609 C-45.8492044 3190.08039849 -47.7912837 3189.05005667 -49.734375 3188.02148438 C-64.64125546 3180.11914377 -79.44552977 3172.05860831 -94.08544922 3163.66992188 C-96.07794831 3162.52829901 -98.07182964 3161.38908612 -100.06689453 3160.25195312 C-122.947359 3147.20976976 -145.49604617 3133.63991702 -167.69384766 3119.46582031 C-170.0741206 3117.95288799 -172.46375042 3116.45570229 -174.85546875 3114.9609375 C-205.34137865 3095.83896142 -234.93449747 3075.20672507 -264 3054 C-264.75603516 3053.44876465 -265.51207031 3052.8975293 -266.29101562 3052.32958984 C-288.66965133 3035.98866103 -310.79535315 3019.23449212 -332.24121094 3001.68286133 C-336.46886749 2998.22640946 -340.74727317 2994.84614218 -345.0625 2991.5 C-350.74000809 2987.08469978 -356.188189 2982.44120359 -361.59692383 2977.7019043 C-365.25786322 2974.49648893 -368.96162748 2971.3679868 -372.75 2968.3125 C-377.41264952 2964.53961644 -381.82453992 2960.54381678 -386.234375 2956.48046875 C-389.00517601 2953.99535768 -391.85051362 2951.64555667 -394.75 2949.3125 C-398.51443267 2946.27425576 -401.98207422 2943.13673701 -405.34375 2939.6640625 C-407.68935155 2937.3073968 -410.20315883 2935.16820997 -412.71875 2932.99609375 C-417.00596018 2929.24478484 -421.17788674 2925.36530528 -425.36621094 2921.50439453 C-427.04638952 2919.95728448 -428.72998291 2918.41395575 -430.4140625 2916.87109375 C-435.47225726 2912.22947323 -440.49465346 2907.57781376 -445.29774475 2902.66981506 C-446.959233 2901.0399901 -448.67906552 2899.54060706 -450.45483398 2898.03686523 C-456.20075238 2893.03402062 -461.5318116 2887.6123667 -466.91015625 2882.22265625 C-468.04766033 2881.08582754 -469.18531267 2879.94914717 -470.32310486 2878.81260681 C-472.69562686 2876.44155079 -475.06635241 2874.06871727 -477.43579102 2871.69458008 C-480.45365912 2868.67101539 -483.47599576 2865.65196367 -486.49970341 2862.63424015 C-488.84627732 2860.29130167 -491.19043735 2857.9459596 -493.53390312 2855.59991264 C-494.64659957 2854.48655516 -495.7600225 2853.37392319 -496.87422371 2852.26207161 C-502.3022066 2846.84302886 -507.67586574 2841.42093522 -512.64781189 2835.57237244 C-514.48852129 2833.43193007 -516.47465179 2831.46489005 -518.5 2829.5 C-521.78103368 2826.25743741 -524.85459996 2822.92952978 -527.85546875 2819.4296875 C-530.83448236 2816.05455732 -533.91946264 2812.78234907 -537 2809.5 C-541.19980404 2805.02068309 -545.36695359 2800.53144369 -549.37109375 2795.875 C-551.33665089 2793.61248819 -553.35673309 2791.40309317 -555.375 2789.1875 C-559.32371445 2784.81714316 -563.0462721 2780.29696921 -566.75 2775.71875 C-568.93501569 2773.07852271 -571.19171391 2770.5327028 -573.5 2768 C-577.36533345 2763.75348314 -581.01398246 2759.3698689 -584.625 2754.90625 C-587.16665273 2751.79606968 -589.7660466 2748.74107786 -592.375 2745.6875 C-596.62151016 2740.7016949 -600.70955323 2735.61224176 -604.73168945 2730.44433594 C-608.28088896 2725.89102467 -611.9086184 2721.40708972 -615.5625 2716.9375 C-620.66342999 2710.683981 -625.64531814 2704.36037971 -630.52734375 2697.93359375 C-632.25158513 2695.6696694 -633.98517594 2693.41303555 -635.71875 2691.15625 C-643.79675181 2680.62261379 -651.70795659 2669.99142701 -659.42773438 2659.19287109 C-661.54438132 2656.24074021 -663.6799092 2653.30248355 -665.81445312 2650.36328125 C-668.55488135 2646.58406255 -671.27957166 2642.79363238 -674 2639 C-674.49951172 2638.30438965 -674.99902344 2637.6087793 -675.51367188 2636.89208984 C-684.34462768 2624.54999654 -692.76933299 2611.93774218 -701.1875 2599.3125 C-701.73876556 2598.48610016 -702.29003113 2597.65970032 -702.85800171 2596.80825806 C-712.46821775 2582.39195091 -722.0440765 2567.94518763 -731.125 2553.1875 C-731.91704834 2551.9029895 -731.91704834 2551.9029895 -732.72509766 2550.5925293 C-734.48681475 2547.7304361 -736.24390744 2544.86554743 -738 2542 C-738.65806641 2540.92782227 -739.31613281 2539.85564453 -739.99414062 2538.75097656 C-761.97528234 2502.89514043 -782.452856 2466.23281929 -802 2429 C-802.33769409 2428.35726135 -802.67538818 2427.71452271 -803.02331543 2427.05230713 C-811.15252866 2411.57283619 -819.07150848 2396.01744055 -826.49658203 2380.18505859 C-827.84372231 2377.33108132 -829.2072307 2374.48553529 -830.57817078 2371.64292908 C-842.44435637 2347.02114134 -853.22072744 2321.95323753 -863.83276367 2296.76934814 C-864.90551275 2294.22417747 -865.98073007 2291.68006586 -867.05664062 2289.13623047 C-901.97591322 2206.45610794 -929.16733467 2120.43621525 -966 1965 C-966.19704529 1964.03348511 -966.39409058 1963.06697021 -966.59710693 1962.07116699 C-986.53170068 1864.25453923 -999.11188771 1763.59695243 -1001.203125 1639.98046875 C-1001.20595238 1638.73231195 -1001.20877975 1637.48415516 -1001.21169281 1636.19817543 C-1001.22505144 1630.23620805 -1001.23498391 1624.27425336 -1001.2388947 1618.3122732 C-1001.2428692 1612.30047118 -1001.25536092 1606.28886059 -1001.28125 1600.27709961 C-1001.48639584 1551.57734627 -999.99347501 1503.02693721 -995.6875 1454.5 C-995.53167953 1452.69216537 -995.53167953 1452.69216537 -995.37271118 1450.84780884 C-986.01231093 1342.44088575 -966.82337055 1235.12118505 -849 881 C-848.67427002 880.27053162 -848.34854004 879.54106323 -848.01293945 878.78948975 C-838.11042327 856.64848854 -827.72889783 834.75150336 -817 813 C-816.63136841 812.25177979 -816.26273682 811.50355957 -815.88293457 810.73266602 C-807.06480425 792.84039817 -798.15435506 775.03812894 -788.44189453 757.61035156 C-786.89599561 754.81171436 -785.38049718 751.99816801 -783.87109375 749.1796875 C-776.83049949 736.03518466 -769.49530344 723.10015435 -761.91699219 710.25878906 C-759.8525649 706.74936785 -757.8038038 703.23112233 -755.7578125 699.7109375 C-748.69810243 687.57627993 -741.58321129 675.49917718 -733.99707031 663.68310547 C-731.63585454 660.0018647 -729.30171558 656.30460808 -726.97775269 652.59977722 C-720.20859267 641.82025782 -713.26319475 631.16146133 -706.25390625 620.53686523 C-704.36645653 617.67454381 -702.4838886 614.80905206 -700.6015625 611.94335938 C-693.93155989 601.81019642 -687.12803082 591.81566269 -680 582 C-678.94849172 580.5179829 -677.8998218 579.03394293 -676.85546875 577.546875 C-676.41364258 576.91813477 -675.97181641 576.28939453 -675.51660156 575.64160156 C-675.07799805 575.01737305 -674.63939453 574.39314453 -674.1875 573.75 C-664.00231565 559.3083207 -653.60251314 545.06983233 -642.8515625 531.04296875 C-639.96026946 527.26802695 -637.10462983 523.46908501 -634.27050781 519.65112305 C-628.67247105 512.11177112 -622.84033732 504.79621499 -616.88671875 497.53515625 C-614.71656227 494.88705276 -612.58642151 492.21492379 -610.5 489.5 C-602.90346269 479.64706547 -594.9573437 470.0576263 -586.88818359 460.58959961 C-584.00289454 457.20089048 -581.17527928 453.77166852 -578.375 450.3125 C-574.79599877 445.91198425 -571.052077 441.70167479 -567.23046875 437.51171875 C-565.00480649 435.00541256 -562.90478439 432.43075607 -560.8125 429.8125 C-555.90648347 423.7424901 -550.56996487 418.11022524 -545.21875 412.43359375 C-542.33659079 409.37294466 -539.55401264 406.24218423 -536.80859375 403.05859375 C-532.85671653 398.56045272 -528.75502716 394.19519071 -524.6796875 389.80908203 C-522.95053257 387.94672185 -521.22523925 386.08083122 -519.5 384.21484375 C-513.32921691 377.55622494 -507.09946222 370.99709867 -500.59765625 364.66015625 C-498.56956766 362.58327154 -496.67551765 360.48939589 -494.78662109 358.29101562 C-491.27615825 354.26540334 -487.59835858 350.4531356 -483.81640625 346.68359375 C-483.15720688 346.02343765 -482.49800751 345.36328156 -481.8188324 344.68312073 C-480.43603165 343.29964494 -479.05198924 341.91740917 -477.66674805 340.53637695 C-475.56769657 338.44268331 -473.4740406 336.34370126 -471.38085938 334.24414062 C-470.02636214 332.89030429 -468.67155469 331.53677825 -467.31640625 330.18359375 C-466.70156876 329.56673203 -466.08673126 328.9498703 -465.45326233 328.3143158 C-461.70958632 324.59039167 -457.85056014 321.0565689 -453.84068298 317.62049866 C-450.7456615 314.89570672 -447.88136162 311.94714613 -445 309 C-440.83645966 304.74140166 -436.57523547 300.70451443 -432.06640625 296.8125 C-428.45118556 293.64149357 -424.98452221 290.31315227 -421.5 287 C-416.68744023 282.4241235 -411.83054365 277.93182119 -406.81298828 273.58105469 C-404.39631015 271.47353952 -402.04273937 269.30075768 -399.6875 267.125 C-395.17096163 263.00093324 -390.50866984 259.12063135 -385.75 255.28125 C-382.91900422 252.93281032 -380.20616402 250.49090098 -377.5 248 C-373.08359856 243.94016355 -368.53836478 240.10676179 -363.87109375 236.33984375 C-360.77012849 233.81266253 -357.728379 231.22370221 -354.6875 228.625 C-349.69896434 224.3760545 -344.60669933 220.28564786 -339.43554688 216.26171875 C-334.96673462 212.77889032 -330.57035366 209.21515864 -326.1875 205.625 C-320.0507383 200.61008375 -313.81625866 195.74332288 -307.50341797 190.95239258 C-303.0107339 187.5426473 -298.55150858 184.09445092 -294.11279297 180.61474609 C-286.49449835 174.64592303 -278.77683557 168.88606074 -270.86181641 163.31884766 C-267.28267064 160.78350207 -263.73866234 158.19930906 -260.1875 155.625 C-251.50730458 149.34655256 -242.77980614 143.13837847 -234 137 C-233.40171387 136.58137695 -232.80342773 136.16275391 -232.18701172 135.73144531 C-194.18922461 109.21447107 -155.02214207 84.33829511 -115 61 C-113.97938477 60.4033252 -112.95876953 59.80665039 -111.90722656 59.19189453 C-97.3492651 50.69126669 -82.66450756 42.47917359 -67.80712891 34.51464844 C-65.18868489 33.1018091 -62.58221977 31.66986211 -59.98046875 30.2265625 C-5.40236576 0 -5.40236576 0 0 0 Z M1212.5 855.625 C1180.59230316 890.72870588 1162.75964608 938.26088679 1162.8758015 985.57413405 C1162.87452342 986.6937213 1162.87324533 987.81330854 1162.87192852 988.96682268 C1162.86886702 992.71668968 1162.87292666 996.46651452 1162.87695217 1000.21638012 C1162.87676906 1002.94424257 1162.87507508 1005.67210363 1162.87345567 1008.39996555 C1162.87072538 1014.34857916 1162.87170804 1020.29718317 1162.87511682 1026.24579629 C1162.88019978 1035.1509381 1162.87948799 1044.05607308 1162.87765024 1052.96121582 C1162.87468558 1068.13845069 1162.87645574 1083.31568172 1162.88079453 1098.49291611 C1162.88517214 1113.87370536 1162.88736717 1129.25449262 1162.88689232 1144.63528252 C1162.88686363 1145.60662395 1162.88683493 1146.57796538 1162.88680537 1147.5787414 C1162.886649 1152.53158491 1162.88645705 1157.48442841 1162.88625254 1162.43727192 C1162.88484489 1198.28982865 1162.8882764 1234.14238361 1162.89426994 1269.9949398 C1162.90019162 1305.50242814 1162.90404488 1341.00991573 1162.90512276 1376.51740456 C1162.90515717 1377.6199746 1162.90519158 1378.72254464 1162.90522704 1379.85852589 C1162.90554023 1389.92874828 1162.90582792 1399.99897068 1162.90608501 1410.06919307 C1162.90672442 1435.10306594 1162.90768375 1460.1369388 1162.90886021 1485.17081165 C1162.90891352 1486.31082135 1162.90896684 1487.45083105 1162.90902177 1488.6253865 C1162.91164354 1544.08546303 1162.9179512 1599.54553906 1162.92456055 1655.00561523 C1162.9268522 1674.25242106 1162.92912756 1693.49922688 1162.93133545 1712.74603271 C1162.9314724 1713.93971531 1162.93160935 1715.1333979 1162.93175045 1716.36325269 C1162.93809409 1771.85064226 1162.94181997 1827.33803191 1162.94487024 1882.82542174 C1162.94506831 1886.427538 1162.9452675 1890.02965425 1162.94546692 1893.63177051 C1162.9467867 1917.50310736 1162.94806135 1941.37444423 1162.94930578 1965.24578109 C1162.95178231 2012.74414718 1162.95452399 2060.24251326 1162.95744783 2107.74087933 C1162.95758707 2110.00289468 1162.95772612 2112.26491004 1162.95786499 2114.52692539 C1162.96411838 2216.36259569 1162.97345641 2318.19826562 1162.98413086 2420.03393555 C1162.98423079 2420.98752062 1162.98433073 2421.9411057 1162.98443369 2422.9235873 C1162.98943419 2470.61572489 1162.99460824 2518.30786245 1163 2566 C1164.4321531 2565.52699654 1165.86392937 2565.05285204 1167.29554749 2564.57823181 C1168.49158899 2564.18235823 1168.49158899 2564.18235823 1169.71179295 2563.77848721 C1175.05061762 2561.96212767 1180.23109409 2559.72291516 1185.4375 2557.5625 C1186.06805298 2557.30122314 1186.69860596 2557.03994629 1187.3482666 2556.77075195 C1200.73700913 2551.21163921 1213.89670619 2545.20134061 1227 2539 C1228.0091748 2538.52626953 1229.01834961 2538.05253906 1230.05810547 2537.56445312 C1255.47513884 2525.62757612 1280.34269376 2512.86431425 1304.46972656 2498.48974609 C1307.33128606 2496.8049491 1310.22051904 2495.17930782 1313.13232422 2493.58325195 C1319.45937583 2490.0768042 1325.64783061 2486.40873193 1331.7578125 2482.53515625 C1332.57922226 2482.01513535 1333.40063202 2481.49511444 1334.24693298 2480.95933533 C1342.60521916 2475.64729305 1350.87061801 2470.19885749 1359.10717773 2464.70043945 C1361.56278666 2463.06230877 1364.02246253 2461.43041637 1366.48242188 2459.79882812 C1383.06993187 2448.76238277 1399.12858737 2437.03833277 1415 2425 C1415.55993652 2424.57654297 1416.11987305 2424.15308594 1416.69677734 2423.71679688 C1425.35074514 2417.16335711 1433.7859497 2410.36002743 1442.18408203 2403.48388672 C1443.76299721 2402.19366805 1445.34778627 2400.91064412 1446.93359375 2399.62890625 C1458.26767873 2390.45048677 1469.19939707 2380.79716854 1480 2371 C1481.60394529 2369.56225299 1483.20811761 2368.12475923 1484.8125 2366.6875 C1486.54207981 2365.12545733 1488.27119091 2363.56289563 1490 2362 C1490.84602783 2361.24082275 1491.69205566 2360.48164551 1492.5637207 2359.69946289 C1502.82604803 2350.37031316 1512.60209115 2340.55106266 1522.39501953 2330.73535156 C1524.88921754 2328.23541788 1527.38793521 2325.74005719 1529.88797569 2323.24596786 C1531.84251009 2321.29507161 1533.79462658 2319.34176982 1535.74605179 2317.38776398 C1537.10665245 2316.02618995 1538.4692347 2314.66659699 1539.83187866 2313.30706787 C1544.22118526 2308.90125913 1548.47900852 2304.44138088 1552.52288818 2299.71522522 C1554.89234915 2296.96380237 1557.39115758 2294.33523171 1559.875 2291.6875 C1564.41348524 2286.81414451 1568.69348797 2281.79696023 1572.86328125 2276.6015625 C1574.95882494 2274.05013271 1577.13963155 2271.61673227 1579.375 2269.1875 C1583.35755281 2264.8122041 1587.0181807 2260.25270734 1590.64111328 2255.58129883 C1593.58775546 2251.78487785 1596.58793949 2248.04190563 1599.64160156 2244.33105469 C1605.0852291 2237.71078392 1610.35709121 2230.98176645 1615.5 2224.125 C1616.0559082 2223.38427246 1616.61181641 2222.64354492 1617.18457031 2221.88037109 C1619.13558336 2219.26260515 1621.06986121 2216.63320464 1623 2214 C1623.68689407 2213.06466934 1623.68689407 2213.06466934 1624.38766479 2212.11044312 C1632.34217169 2201.2587021 1639.99319331 2190.23562641 1647.42993164 2179.02319336 C1649.06153855 2176.56394914 1650.69929663 2174.10888968 1652.33789062 2171.65429688 C1662.78956129 2155.96424556 1672.93687585 2140.09828958 1682.4375 2123.8125 C1682.79306976 2123.20436462 1683.14863953 2122.59622925 1683.51498413 2121.96966553 C1690.6258058 2109.79660621 1697.40229706 2097.45874828 1704 2085 C1704.48210938 2084.09749512 1704.96421875 2083.19499023 1705.4609375 2082.26513672 C1748.07581289 2002.46302378 1778.83712774 1917.19060126 1820.74285889 1691.77746582 C1820.91009211 1689.97112477 1821.08006911 1688.16503491 1821.25323486 1686.35925293 C1826.81623773 1628.33429045 1826.56301041 1568.01137821 1821 1510 C1820.82638249 1508.12470016 1820.65304956 1506.24937396 1820.47998047 1504.37402344 C1811.53275158 1408.75769728 1789.99094371 1314.29222483 1747 1205 C1746.74345642 1204.39041443 1746.48691284 1203.78082886 1746.22259521 1203.152771 C1730.58067518 1166.03894715 1713.63287238 1129.36321422 1693.43017578 1094.49316406 C1691.66287612 1091.41230642 1689.95711274 1088.30038402 1688.25561523 1085.18286133 C1678.6649637 1067.63630611 1668.01316525 1050.68368431 1657 1034 C1656.58298828 1033.36690918 1656.16597656 1032.73381836 1655.73632812 1032.08154297 C1640.34390637 1008.74677567 1624.0738093 986.13456823 1607 964 C1606.47100098 963.31357422 1605.94200195 962.62714844 1605.39697266 961.91992188 C1599.64796127 954.47845343 1593.71691503 947.223819 1587.609375 940.07421875 C1585.23730965 937.29266912 1582.92507288 934.46651339 1580.625 931.625 C1571.62194121 920.5838156 1562.15572404 909.97010723 1552.44091797 899.55419922 C1551.01412939 898.01524021 1549.6005405 896.46528411 1548.19140625 894.91015625 C1543.65503536 889.90701794 1539.05525659 884.99673632 1534.25 880.25 C1530.54852081 876.59052341 1527.05741651 872.84823593 1523.671875 868.8984375 C1519.5390439 864.20554984 1515.06810492 859.86875125 1510.3125 855.8125 C1506.56734473 852.60341597 1503.14050028 849.13981356 1499.6875 845.625 C1484.92767556 830.72372108 1467.60350455 818.62675612 1449 809 C1448.4004248 808.68724121 1447.80084961 808.37448242 1447.18310547 808.05224609 C1367.82935673 767.25480192 1272.02950547 793.06710399 1212.5 855.625 Z " fill="#000000" transform="translate(1001,47)"/>
</svg>
